HIERARCHY
ROOT Hips
{
	OFFSET	0.00	0.00	0.00
	CHANNELS 6 Xposition Yposition Zposition Zrotation Xrotation Yrotation
	JOINT LeftUpLeg
	{
		OFFSET	 0.126116	-0.014019	-0.065224
		CHANNELS 3 Zrotation Xrotation Yrotation
		JOINT LeftLeg
		{
			OFFSET	 0.000000	 0.000000	 0.569914
			CHANNELS 3 Zrotation Xrotation Yrotation
			JOINT LeftFoot
			{
				OFFSET	 0.000000	 0.000000	 0.544423
				CHANNELS 3 Zrotation Xrotation Yrotation
				JOINT LeftToeBase
				{
					OFFSET	 0.000000	 0.000000	 0.207117
					CHANNELS 3 Zrotation Xrotation Yrotation
					End Site
					{
						OFFSET	 0.000000	 0.000000	 0.207117
					}
				}
			}
		}
	}
	JOINT RightUpLeg
	{
		OFFSET	-0.124023	-0.008373	-0.065224
		CHANNELS 3 Zrotation Xrotation Yrotation
		JOINT RightLeg
		{
			OFFSET	 0.000000	 0.000000	 0.570047
			CHANNELS 3 Zrotation Xrotation Yrotation
			JOINT RightFoot
			{
				OFFSET	 0.000000	 0.000000	 0.544354
				CHANNELS 3 Zrotation Xrotation Yrotation
				JOINT RightToeBase
				{
					OFFSET	 0.000000	 0.000000	 0.207540
					CHANNELS 3 Zrotation Xrotation Yrotation
					End Site
					{
						OFFSET	 0.000000	 0.000000	 0.207540
					}
				}
			}
		}
	}
	JOINT Spine
	{
		OFFSET	 0.000184	-0.007763	 0.117403
		CHANNELS 3 Zrotation Xrotation Yrotation
		JOINT Spine1
		{
			OFFSET	 0.000000	 0.000000	 0.137269
			CHANNELS 3 Zrotation Xrotation Yrotation
			JOINT Spine2
			{
				OFFSET	 0.000000	 0.000000	 0.156879
				CHANNELS 3 Zrotation Xrotation Yrotation
				JOINT LeftShoulder
				{
					OFFSET	 0.080501	-0.002496	 0.160144
					CHANNELS 3 Zrotation Xrotation Yrotation
					JOINT LeftArm
					{
						OFFSET	 0.000000	 0.000000	 0.164363
						CHANNELS 3 Zrotation Xrotation Yrotation
						JOINT LeftForeArm
						{
							OFFSET	 0.000000	 0.000000	 0.364576
							CHANNELS 3 Zrotation Xrotation Yrotation
							JOINT LeftHand
							{
								OFFSET	 0.000000	 0.000000	 0.360812
								CHANNELS 3 Zrotation Xrotation Yrotation
								JOINT LeftHandIndex1
								{
									OFFSET	 0.000000	 0.000000	 0.086006
									CHANNELS 3 Zrotation Xrotation Yrotation
									JOINT LeftHandIndex2
									{
										OFFSET	 0.000000	 0.000000	 0.047237
										CHANNELS 3 Zrotation Xrotation Yrotation
										JOINT LeftHandIndex3
										{
											OFFSET	-0.004284	-0.000551	 0.038165
											CHANNELS 3 Zrotation Xrotation Yrotation
											End Site
											{
												OFFSET	-0.004284	-0.000551	 0.038165
											}
										}
									}
								}
							}
						}
					}
				}
				JOINT Neck
				{
					OFFSET	 0.000000	 0.000000	 0.176489
					CHANNELS 3 Zrotation Xrotation Yrotation
					JOINT Head
					{
						OFFSET	 0.000000	-0.001747	 0.077940
						CHANNELS 3 Zrotation Xrotation Yrotation
						End Site
						{
							OFFSET	 0.000000	-0.001747	 0.077940
						}
					}
				}
				JOINT RightShoulder
				{
					OFFSET	-0.080363	 0.000306	 0.159706
					CHANNELS 3 Zrotation Xrotation Yrotation
					JOINT RightArm
					{
						OFFSET	 0.000000	 0.000000	 0.164196
						CHANNELS 3 Zrotation Xrotation Yrotation
						JOINT RightForeArm
						{
							OFFSET	 0.000000	 0.000000	 0.365611
							CHANNELS 3 Zrotation Xrotation Yrotation
							JOINT RightHand
							{
								OFFSET	 0.000000	 0.000000	 0.360648
								CHANNELS 3 Zrotation Xrotation Yrotation
								JOINT RightHandIndex1
								{
									OFFSET	 0.000000	 0.000000	 0.069977
									CHANNELS 3 Zrotation Xrotation Yrotation
									JOINT RightHandIndex2
									{
										OFFSET	 0.000000	 0.000000	 0.052305
										CHANNELS 3 Zrotation Xrotation Yrotation
										JOINT RightHandIndex3
										{
											OFFSET	 0.009002	-0.000782	 0.042196
											CHANNELS 3 Zrotation Xrotation Yrotation
											End Site
											{
												OFFSET	 0.009002	-0.000782	 0.042196
											}
										}
									}
								}
							}
						}
					}
				}
			}
		}
	}
}
MOTION
Frames:    13
Frame Time: 0.03333334
-0.437937	-0.033144	 1.274619	-179.850800	 1.200732	 0.278619	-10.324870	-1.558245	 178.424200	 8.268067	-9.393247	 1.265236	-37.876020	 69.197740	 15.323980	-2.385833	 28.452760	 0.000004	 12.252240	-4.645301	-179.840900	-7.600413	-14.684640	-2.331138	 42.011140	 71.814410	-18.396990	 2.384659	 28.388700	-0.000001	 4.387008	 2.757057	-2.821937	 2.189779	-3.951908	 13.923530	-4.398069	 9.756196	-15.373450	-91.776220	 78.527400	-180.000000	-7.824939	-5.514486	 4.400111	 6.379522	-6.796768	-38.825970	-5.269687	-7.055436	-5.017111	-4.130319	 21.525730	 0.991547	-5.167930	 0.731704	 3.519349	-1.378229	 35.397820	-2.634230	-0.000002	-3.783157	-0.089647	-13.065540	-9.195089	-1.055212	 89.782120	 78.203830	 180.000000	 8.681158	-18.120230	 5.156161	-12.338610	-2.213426	 19.320570	 11.379080	 5.986059	-13.229430	 5.716227	 19.173190	-3.685159	 5.027444	 0.246877	-9.377972	-2.350882	 35.473990	 5.254307
-0.439162	-0.034484	 1.271270	-179.527400	-3.309659	 0.855285	 19.134380	-3.394843	 175.055300	-7.101805	-20.717820	-2.725222	-6.838830	 75.944040	-2.394928	-2.385833	 28.452760	 0.000004	 16.512270	-3.118642	 179.240700	 2.058281	-21.338910	 0.194908	 20.444270	 73.838620	-5.076088	 2.384659	 28.388700	-0.000001	 4.470418	 8.335223	-5.061980	 2.298863	 0.492389	 14.112610	-8.157682	 2.171336	-14.434140	-91.776120	 78.527380	 180.000000	-20.266100	 7.717495	 20.468130	-1.433838	-3.819489	-81.793810	-0.086233	-16.869060	-1.671303	-4.130319	 21.525730	 0.991547	-5.167930	 0.731704	 3.519349	-1.378229	 35.397820	-2.634230	-2.563504	 0.305881	 1.414378	-16.527570	-25.459130	-13.853350	 89.782090	 78.203870	-180.000000	 47.642560	 2.622128	-10.802590	-9.061717	-11.178330	 74.855370	 49.153340	 50.389450	 5.314671	 5.716227	 19.173190	-3.685159	 5.027444	 0.246877	-9.377972	-2.350882	 35.473990	 5.254307
-0.440858	-0.037652	 1.264174	-179.152300	-4.434340	 1.473684	 23.173000	-8.776166	 173.390800	-11.220070	-35.541630	-6.912962	-19.291200	 84.294050	 12.419100	-2.385833	 28.452760	 0.000004	 16.507370	-7.226155	-178.706200	 3.774052	-33.070620	 1.228968	 28.398060	 78.216120	-14.859380	 2.384659	 28.388700	-0.000001	 2.869327	 10.356500	-5.316311	 0.852643	 1.408277	 12.058550	-9.043780	 0.583224	-13.308830	-91.776150	 78.527400	 180.000000	-0.437474	 47.140220	 5.884493	-3.072616	-2.334896	-115.034800	-0.905267	-15.189860	-2.139586	-4.130319	 21.525730	 0.991547	-5.167930	 0.731704	 3.519349	-1.378229	 35.397820	-2.634230	-3.178699	 1.248017	 2.165640	-18.156550	-28.382620	-17.567290	 89.782060	 78.203890	-180.000000	 27.674700	 40.448450	-7.066059	 0.179863	-10.637660	 120.679900	 35.757290	 16.085540	-5.966228	 5.716227	 19.173190	-3.685159	 5.027444	 0.246877	-9.377972	-2.350882	 35.473990	 5.254307
-0.444178	-0.040869	 1.257831	-178.704300	-4.690560	 1.372410	 20.909480	-11.109290	 173.806800	-12.549060	-44.444260	-9.262287	-110.628000	 86.493120	 103.685000	-2.385833	 28.452760	 0.000004	 16.671850	-10.003200	-175.684000	 4.125428	-40.648440	 1.696174	 53.356340	 79.813170	-41.235890	 2.384659	 28.388700	-0.000001	 0.913597	 11.231360	-4.863925	-0.597854	 1.613405	 11.278340	-8.883894	 0.659490	-12.967520	-91.776210	 78.527380	-180.000000	 53.362560	 48.660720	-72.710370	-1.512973	-2.736761	-80.314220	-0.637825	-15.560830	-2.129510	-4.130319	 21.525730	 0.991547	-5.167930	 0.731704	 3.519349	-1.378229	 35.397820	-2.634230	-3.131557	 1.136487	 2.382225	-17.999360	-27.780930	-18.036590	 89.782140	 78.203900	 180.000000	-45.969870	 48.486020	 73.229320	-4.311307	-11.576760	 98.734560	-5.926343	-9.298537	-13.273800	 5.716227	 19.173190	-3.685159	 5.027444	 0.246877	-9.377972	-2.350882	 35.473990	 5.254307
-0.451607	-0.043328	 1.256040	-177.929800	-4.842861	 1.128061	 19.403990	-11.079070	 174.610500	-13.273770	-45.822460	-10.016540	-125.756100	 85.871940	 119.055800	-2.385833	 28.452760	 0.000004	 15.771530	-10.471440	-174.262500	 4.622753	-42.229600	 2.084710	 57.031110	 79.792810	-45.479160	 2.384659	 28.388700	-0.000001	 0.034942	 11.781290	-4.338616	-0.686968	 1.117017	 11.548240	-8.797561	 1.091886	-13.035890	-91.776200	 78.527380	-180.000000	 62.095780	 42.591570	-97.829900	-0.525535	-2.279286	-57.530090	-0.623448	-15.449020	-2.138942	-4.130319	 21.525730	 0.991547	-5.167930	 0.731704	 3.519349	-1.378229	 35.397820	-2.634230	-3.048446	 0.609518	 1.840740	-17.767690	-27.115520	-17.012070	 89.782040	 78.203900	-180.000000	-62.619730	 42.736230	 96.070660	-8.019754	-9.615578	 78.562690	-13.140160	-22.696500	-8.345273	 5.716227	 19.173190	-3.685159	 5.027444	 0.246877	-9.377972	-2.350882	 35.473990	 5.254307
-0.460413	-0.044945	 1.256360	-176.799600	-5.112783	 0.918312	 16.926690	-9.926850	 175.665000	-12.795550	-44.167160	-9.393801	-123.007300	 86.111790	 116.241000	-2.385833	 28.452760	 0.000004	 13.845830	-10.341180	-173.636000	 5.097407	-42.125110	 2.399476	 52.131660	 79.775730	-40.721090	 2.384659	 28.388700	-0.000001	-0.267813	 11.604160	-4.141085	 0.041554	 1.897776	 12.753260	-9.181566	 0.632619	-13.593240	-91.776150	 78.527350	 180.000000	 63.507430	 40.023840	-98.529140	-1.053759	-2.426993	-69.251120	-0.645352	-15.329580	-2.145755	-4.130319	 21.525730	 0.991547	-5.167930	 0.731704	 3.519349	-1.378229	 35.397820	-2.634230	-2.962431	-0.708001	-0.151598	-17.116290	-25.604690	-12.196810	 89.782100	 78.203930	 180.000000	-63.556610	 42.198880	 93.008610	-8.072971	-10.065760	 78.836640	-14.149740	-26.690820	-6.818008	 5.716227	 19.173190	-3.685159	 5.027444	 0.246877	-9.377972	-2.350882	 35.473990	 5.254307
-0.467844	-0.045251	 1.255758	-176.002400	-5.215982	 0.669039	 14.498420	-8.889688	 176.983100	-12.243230	-43.212990	-8.845502	-123.163100	 86.138420	 116.199300	-2.385833	 28.452760	 0.000004	 12.264490	-11.931090	-172.010500	 5.682586	-45.030040	 2.945641	 52.295780	 79.142120	-41.571160	 2.384659	 28.388700	-0.000001	-0.145139	 11.354810	-4.202036	 0.851435	 1.554590	 14.936740	-8.996607	 1.631534	-14.628990	-91.776240	 78.527360	-180.000000	 54.631950	 42.210630	-93.976550	-1.947387	-2.396379	-89.442600	-0.768308	-14.826110	-2.168575	-4.130319	 21.525730	 0.991547	-5.167930	 0.731704	 3.519349	-1.378229	 35.397820	-2.634230	-3.832674	 1.785588	 2.019213	-18.381460	-27.461040	-17.404990	 89.782070	 78.203900	-180.000000	-59.263410	 42.452600	 82.813030	-9.615269	-9.336801	 69.328640	-1.589664	-34.317130	 11.412170	 5.716227	 19.173190	-3.685159	 5.027444	 0.246877	-9.377972	-2.350882	 35.473990	 5.254307
-0.473025	-0.044882	 1.255715	-174.989700	-5.114370	 1.193849	 12.233340	-8.427463	 177.308100	-11.667960	-42.516070	-8.333160	-120.149400	 86.114300	 112.971700	-2.385833	 28.452760	 0.000004	 10.834660	-13.939990	-171.241000	 6.498471	-47.573700	 3.677081	 48.387170	 78.161510	-38.486480	 2.384659	 28.388700	-0.000001	 0.037433	 10.578130	-4.793627	 1.920790	 2.069333	 16.186190	-8.847608	 2.027465	-15.151740	-91.776190	 78.527380	-180.000000	 40.393230	 47.676100	-85.918480	-2.458502	-2.254981	-102.306300	-0.766285	-14.642490	-2.174009	-4.130319	 21.525730	 0.991547	-5.167930	 0.731704	 3.519349	-1.378229	 35.397820	-2.634230	-4.100479	 2.358701	 2.534564	-18.536860	-27.354950	-18.258640	 89.782100	 78.203890	 180.000000	-52.708050	 43.135050	 73.294920	-10.932140	-8.545049	 60.520580	 12.094770	-34.946850	 28.338720	 5.716227	 19.173190	-3.685159	 5.027444	 0.246877	-9.377972	-2.350882	 35.473990	 5.254307
-0.476010	-0.044549	 1.256657	-173.940600	-4.251031	 1.400543	 9.516935	-8.682894	 177.888100	-10.908540	-41.946590	-7.723920	-111.057900	 85.852730	 103.648600	-2.385833	 28.452760	 0.000004	 9.759374	-17.148310	-169.969100	 7.516877	-49.924050	 4.593663	 40.257450	 77.039960	-31.003220	 2.384659	 28.388700	-0.000001	 0.664541	 9.198452	-4.670181	 3.506967	 2.899880	 16.628200	-8.886702	 2.123556	-15.342900	-91.776130	 78.527420	 180.000000	 31.579730	 51.422660	-66.526500	-2.711403	-2.164089	-109.137700	-0.669998	-14.382050	-2.182355	-4.130319	 21.525730	 0.991547	-5.167930	 0.731704	 3.519349	-1.378229	 35.397820	-2.634230	-4.066538	 1.318602	 1.709221	-18.042440	-25.750520	-15.820270	 89.782030	 78.203850	-180.000000	-40.703650	 44.935630	 58.618820	-9.132575	-9.240714	 71.970500	 13.401650	-31.511580	 21.631790	 5.716227	 19.173190	-3.685159	 5.027444	 0.246877	-9.377972	-2.350882	 35.473990	 5.254307
-0.473498	-0.042717	 1.258985	-173.178400	-3.148783	 1.100859	 7.148965	-8.937446	 178.753800	-10.100510	-40.798270	-7.012801	-99.285220	 85.767700	 91.583840	-2.385833	 28.452760	 0.000004	 9.967757	-19.773380	-168.827000	 6.987214	-48.668400	 4.108774	 29.782840	 73.707280	-20.451690	 2.384659	 28.388700	-0.000001	 1.809342	 7.517296	-4.105076	 5.363834	 4.046801	 17.238700	-9.039617	 1.960728	-15.762410	-91.776210	 78.527360	-180.000000	 29.894650	 51.738300	-59.398210	-2.728924	-2.145455	-109.834300	-0.575809	-14.079040	-2.196508	-4.130319	 21.525730	 0.991547	-5.167930	 0.731704	 3.519349	-1.378229	 35.397820	-2.634230	-4.057881	-0.066162	 0.683462	-17.575230	-24.018400	-12.974010	 89.782120	 78.203890	 180.000000	-34.283570	 45.657010	 51.679630	-8.209741	-9.459868	 77.676510	 13.828270	-32.266800	 16.627350	 5.716227	 19.173190	-3.685159	 5.027444	 0.246877	-9.377972	-2.350882	 35.473990	 5.254307
-0.467292	-0.039431	 1.262020	-172.344100	-2.364306	 1.093310	 4.655989	-9.006721	 179.017900	-9.364169	-39.688470	-6.376341	-92.155250	 85.645840	 84.100440	-2.385833	 28.452760	 0.000004	 11.134560	-21.051630	-168.658000	 5.289010	-44.980620	 2.664236	 25.484270	 70.430110	-15.298650	 2.384659	 28.388700	-0.000001	 2.862170	 6.030468	-4.261720	 7.227243	 5.800591	 17.909310	-9.098716	 1.486601	-16.062160	-91.776180	 78.527380	-180.000000	 33.026660	 50.998700	-60.211380	-2.678213	-2.088371	-109.204600	-0.549747	-13.865200	-2.209332	-4.130319	 21.525730	 0.991547	-5.167930	 0.731704	 3.519349	-1.378229	 35.397820	-2.634230	-4.062065	-0.630580	 0.562582	-17.414710	-23.298220	-12.299940	 89.782100	 78.203830	 180.000000	-31.656150	 46.179370	 49.495210	-7.766457	-9.533664	 80.426020	 13.172100	-34.943730	 12.812770	 5.716227	 19.173190	-3.685159	 5.027444	 0.246877	-9.377972	-2.350882	 35.473990	 5.254307
-0.459624	-0.034954	 1.264785	-171.788900	-1.985868	 1.601297	 1.868679	-8.991578	 178.547200	-8.737598	-39.245470	-5.914090	-88.585990	 85.344570	 80.184820	-2.385833	 28.452760	 0.000004	 11.727780	-21.720670	-169.568700	 4.358906	-41.058500	 1.863797	 22.189700	 67.787290	-11.297340	 2.384659	 28.388700	-0.000001	 3.962540	 5.206607	-5.316028	 9.003415	 7.423527	 17.831820	-9.138319	 0.990112	-15.675980	-91.776210	 78.527400	-180.000000	 34.806580	 50.024790	-61.089980	-2.625683	-2.031364	-108.468700	-0.553647	-13.280440	-2.238888	-4.130319	 21.525730	 0.991547	-5.167930	 0.731704	 3.519349	-1.378229	 35.397820	-2.634230	-4.410902	 0.688947	 1.677774	-17.898180	-24.468660	-14.868930	 89.782180	 78.203920	 179.999900	-29.534780	 46.493720	 47.789010	-7.392164	-8.771864	 82.028480	 13.452930	-37.803980	 10.709860	 5.716227	 19.173190	-3.685159	 5.027444	 0.246877	-9.377972	-2.350882	 35.473990	 5.254307
-0.450866	-0.029585	 1.266928	-171.274600	-1.352943	 2.069882	-0.992454	-9.317160	 178.001000	-8.044285	-39.091130	-5.451053	-78.645260	 84.418010	 70.033030	-2.385833	 28.452760	 0.000004	 12.503290	-22.310250	-170.544300	 3.916819	-37.568780	 1.460293	 19.259790	 67.533550	-7.240535	 2.384659	 28.388700	-0.000001	 4.998162	 4.342657	-5.842412	 10.721280	 8.293531	 16.959100	-9.172625	 0.588708	-15.016220	-91.776210	 78.527400	-180.000000	 36.564360	 49.093550	-62.291300	-2.592690	-2.022381	-107.794600	-0.513743	-12.774370	-2.265592	-4.130319	 21.525730	 0.991547	-5.167930	 0.731704	 3.519349	-1.378229	 35.397820	-2.634230	-4.604367	 0.978458	 2.130452	-18.094460	-24.894490	-15.681800	 89.782100	 78.203870	-180.000000	-28.376500	 46.758130	 46.611620	-7.257835	-8.818198	 82.996630	 11.797380	-40.621750	 8.144376	 5.716227	 19.173190	-3.685159	 5.027444	 0.246877	-9.377972	-2.350882	 35.473990	 5.254307
